<?xml version="1.0" encoding="utf-8"?>
<!-- Generator: Adobe Illustrator 18.0.0, SVG Export Plug-In . SVG Version: 6.00 Build 0)  -->
<!DOCTYPE svg PUBLIC "-//W3C//DTD SVG 1.1//EN" "http://www.w3.org/Graphics/SVG/1.1/DTD/svg11.dtd">
<svg version="1.1" id="Layer_1" xmlns="http://www.w3.org/2000/svg" xmlns:xlink="http://www.w3.org/1999/xlink" x="0px" y="0px"
	 viewBox="0 0 128 48" enable-background="new 0 0 128 48" xml:space="preserve">
<g>
	<g>
		<path fill="#FFFFFF" d="M14.7,26.5c0,1.4-0.9,2.1-2.1,2.1H3.6v2.8c0,1.4,0.8,2.2,2.3,2.2h6.7c0.6,0,1.1,0.4,1.1,1V35
			c0,0.6-0.5,1-1.1,1H4.9c-1,0-2-0.4-2.7-1.2C1.4,34,1,33.1,1,32v-8.9c0-1.1,0.4-2,1.2-2.8C3,19.6,4,19.2,5.1,19.2h5.6
			c1.1,0,2.1,0.4,2.9,1.1c0.8,0.7,1.2,1.7,1.2,2.8V26.5z M12.1,26.4v-3c0-1.1-0.9-1.9-1.9-1.9H5.5c-1,0-1.9,0.8-1.9,1.9v3H12.1z"/>
		<path fill="#FFFFFF" d="M30.3,34.9c0,0.6-0.5,1.1-1.1,1.1h-0.5c-0.6,0-1.1-0.5-1.1-1.1V23.7c0-1.2-1-2.1-2.1-2.1h-4.2
			c-1.2,0-2.1,1-2.1,2.1v11.3c0,0.6-0.5,1.1-1.1,1.1h-0.5c-0.6,0-1.1-0.5-1.1-1.1V20.1c0-0.6,0.3-0.9,0.8-0.9h0.5
			c0.4,0,0.7,0.2,0.8,0.5l0.4,0.6c0.2,0.3,0.3,0.4,0.6,0.4c0.3,0,0.9-0.2,1.7-0.6c1.4-0.7,2.4-1.1,3.8-1.1h0.5
			c2.8,0,4.6,1.6,4.6,4.2V34.9z"/>
		<path fill="#FFFFFF" d="M43,20.6c0,0.6-0.5,1-1.1,1h-4.8v13.4c0,0.6-0.5,1.1-1.1,1.1h-0.5c-0.6,0-1.1-0.5-1.1-1.1V21.6h-2.5
			c-0.6,0-1.1-0.4-1.1-1v-0.4c0-0.6,0.5-1,1.1-1h2.5v-6.1c0-0.6,0.5-1.1,1.1-1.1h0.5c0.6,0,1.1,0.5,1.1,1.1v6.1H42
			c0.6,0,1.1,0.4,1.1,1V20.6z"/>
		<path fill="#FFFFFF" d="M57.8,26.5c0,1.4-0.9,2.1-2.1,2.1h-9.1v2.8c0,1.4,0.8,2.2,2.3,2.2h6.7c0.6,0,1.1,0.4,1.1,1V35
			c0,0.6-0.5,1-1.1,1H48c-1,0-2-0.4-2.7-1.2c-0.7-0.8-1.1-1.7-1.1-2.8v-8.9c0-1.1,0.4-2,1.2-2.8c0.8-0.7,1.8-1.1,2.9-1.1h5.6
			c1.1,0,2.1,0.4,2.9,1.1c0.8,0.7,1.2,1.7,1.2,2.8V26.5z M55.2,26.4v-3c0-1.1-0.9-1.9-1.9-1.9h-4.7c-1,0-1.9,0.8-1.9,1.9v3H55.2z"/>
		<path fill="#FFFFFF" d="M62.7,34.9c0,0.6-0.5,1.1-1.1,1.1h-0.5c-0.6,0-1.1-0.5-1.1-1.1V13.1c0-0.6,0.5-1.1,1.1-1.1h0.5
			c0.6,0,1.1,0.5,1.1,1.1V34.9z"/>
	</g>
</g>
</svg>
