<?xml version="1.0" encoding="utf-8"?>
<!-- Generator: Adobe Illustrator 19.1.0, SVG Export Plug-In . SVG Version: 6.00 Build 0)  -->
<svg version="1.1" xmlns="http://www.w3.org/2000/svg" xmlns:xlink="http://www.w3.org/1999/xlink" x="0px" y="0px"
	 viewBox="0 0 24 24" style="enable-background:new 0 0 24 24;" xml:space="preserve">
<style type="text/css">
	.st0{display:none;}
	.st1{display:inline;fill:none;stroke:#000000;stroke-width:1.000000e-02;stroke-miterlimit:10;}
	.st2{display:inline;fill:none;}
	.st3{fill:#FFFFFF;}
	.st4{fill:#E50000;}
	.st5{fill:#FF6400;}
	.st6{fill:#3281FF;}
	.st7{opacity:0.5;}
	.st8{fill:#00ADEE;}
	.st9{fill-opacity:0.9;}
	.st10{fill:#009500;}
	.st11{fill:#231F20;}
	.st12{fill:#004281;}
</style>
<g id="guides" class="st0">
</g>
<g id="limits" class="st0">
	<path class="st1" d="M20,20H4c-1.1,0-2-0.9-2-2V6c0-1.1,0.9-2,2-2h16c1.1,0,2,0.9,2,2v12C22,19.1,21.1,20,20,20z"/>
	<path class="st1" d="M20,4v16c0,1.1-0.9,2-2,2H6c-1.1,0-2-0.9-2-2V4c0-1.1,0.9-2,2-2h12C19.1,2,20,2.9,20,4z"/>
	<path class="st1" d="M20,4v16c0,1.1-0.9,2-2,2H6c-1.1,0-2-0.9-2-2V4c0-1.1,0.9-2,2-2h12C19.1,2,20,2.9,20,4z"/>
	<path class="st1" d="M21,5v14c0,1.1-0.9,2-2,2H5c-1.1,0-2-0.9-2-2V5c0-1.1,0.9-2,2-2h14C20.1,3,21,3.9,21,5z"/>
	<path class="st1" d="M21,5v14c0,1.1-0.9,2-2,2H5c-1.1,0-2-0.9-2-2V5c0-1.1,0.9-2,2-2h14C20.1,3,21,3.9,21,5z"/>
	<circle class="st1" cx="12" cy="12" r="10"/>
	<circle class="st1" cx="12" cy="12" r="5"/>
	<line class="st1" x1="0" y1="0" x2="24" y2="24"/>
	<line class="st1" x1="0" y1="24" x2="24" y2="0"/>
</g>
<g id="base" class="st0">
	<rect class="st2" width="24" height="24"/>
</g>
<g id="icons">
	<g>
		<path class="st12" d="M11.8,13.8c0,1-0.7,1.5-1.6,1.5H3.1v2c0,1,0.6,1.5,1.8,1.5h3.9c0.5,0,0.8,0.3,0.8,0.7v0.3
			c0,0.4-0.4,0.7-0.8,0.7H4c-0.8,0-1.5-0.3-2.2-0.9c-0.6-0.6-0.9-1.2-0.9-2v-6.3c0-0.8,0.3-1.4,0.9-2c0.6-0.5,1.4-0.8,2.3-0.8h4.4
			c0.9,0,1.6,0.3,2.3,0.8c0.6,0.5,1,1.2,1,2V13.8z M9.7,13.7v-2.1c0-0.8-0.7-1.4-1.5-1.4H4.6c-0.8,0-1.5,0.6-1.5,1.4v2.1H9.7z"/>
		<path class="st12" d="M23,17.6c0,1.6-1.3,2.9-3.2,2.9h-6c-0.5,0-0.8-0.3-0.8-0.7v-0.3c0-0.4,0.4-0.7,0.8-0.7h5.4
			c1,0,1.7-0.7,1.7-1.5v-3.4c0-0.5-0.5-1-1.2-1h-6.4V4.5c0-0.7,0.4-1,1.2-1h6.8c0.5,0,0.9,0.3,0.9,0.7v0.3c0,0.4-0.4,0.7-0.8,0.7
			h-5.9v6h5.5c1.2,0,2.1,0.9,2.1,2V17.6z"/>
	</g>
</g>
</svg>
