<?xml version="1.0" encoding="utf-8"?>
<!-- Generator: Adobe Illustrator 18.0.0, SVG Export Plug-In . SVG Version: 6.00 Build 0)  -->
<!DOCTYPE svg PUBLIC "-//W3C//DTD SVG 1.1//EN" "http://www.w3.org/Graphics/SVG/1.1/DTD/svg11.dtd">
<svg version="1.1" xmlns="http://www.w3.org/2000/svg" xmlns:xlink="http://www.w3.org/1999/xlink" x="0px" y="0px"
	 viewBox="0 0 24 24" enable-background="new 0 0 24 24" xml:space="preserve">
<g id="guides" display="none">
</g>
<g id="limits" display="none">
	<path display="inline" fill="none" stroke="#000000" stroke-width="1.000000e-02" stroke-miterlimit="10" d="M20,20H4
		c-1.1,0-2-0.9-2-2V6c0-1.1,0.9-2,2-2h16c1.1,0,2,0.9,2,2v12C22,19.1,21.1,20,20,20z"/>
	<path display="inline" fill="none" stroke="#000000" stroke-width="1.000000e-02" stroke-miterlimit="10" d="M20,4v16
		c0,1.1-0.9,2-2,2H6c-1.1,0-2-0.9-2-2V4c0-1.1,0.9-2,2-2h12C19.1,2,20,2.9,20,4z"/>
	<path display="inline" fill="none" stroke="#000000" stroke-width="1.000000e-02" stroke-miterlimit="10" d="M20,4v16
		c0,1.1-0.9,2-2,2H6c-1.1,0-2-0.9-2-2V4c0-1.1,0.9-2,2-2h12C19.1,2,20,2.9,20,4z"/>
	<path display="inline" fill="none" stroke="#000000" stroke-width="1.000000e-02" stroke-miterlimit="10" d="M21,5v14
		c0,1.1-0.9,2-2,2H5c-1.1,0-2-0.9-2-2V5c0-1.1,0.9-2,2-2h14C20.1,3,21,3.9,21,5z"/>
	<path display="inline" fill="none" stroke="#000000" stroke-width="1.000000e-02" stroke-miterlimit="10" d="M21,5v14
		c0,1.1-0.9,2-2,2H5c-1.1,0-2-0.9-2-2V5c0-1.1,0.9-2,2-2h14C20.1,3,21,3.9,21,5z"/>

		<circle display="inline" fill="none" stroke="#000000" stroke-width="1.000000e-02" stroke-miterlimit="10" cx="12" cy="12" r="10"/>

		<circle display="inline" fill="none" stroke="#000000" stroke-width="1.000000e-02" stroke-miterlimit="10" cx="12" cy="12" r="5"/>

		<line display="inline" fill="none" stroke="#000000" stroke-width="1.000000e-02" stroke-miterlimit="10" x1="0" y1="0" x2="24" y2="24"/>

		<line display="inline" fill="none" stroke="#000000" stroke-width="1.000000e-02" stroke-miterlimit="10" x1="0" y1="24" x2="24" y2="0"/>
</g>
<g id="base" display="none">
	<rect display="inline" fill="none" width="24" height="24"/>
</g>
<g id="icons">
	<g>
		<g>
			<g>
				<path fill="#00ADEE" d="M11.4,13.8c0,1-0.7,1.5-1.6,1.5H2.7v2c0,1,0.6,1.6,1.8,1.6h3.8c0.5,0,0.8,0.3,0.8,0.7v0.3
					c0,0.4-0.4,0.7-0.8,0.7H3.7c-0.8,0-1.5-0.3-2.1-0.9c-0.6-0.6-0.9-1.3-0.9-2.1v-6.4c0-0.8,0.3-1.5,0.9-2C2.2,8.8,3,8.5,3.9,8.5
					h4.4c0.9,0,1.6,0.3,2.2,0.8c0.6,0.5,0.9,1.2,0.9,2V13.8z M9.3,13.8v-2.2c0-0.8-0.7-1.4-1.5-1.4H4.2c-0.8,0-1.5,0.6-1.5,1.4v2.2
					H9.3z"/>
				<path fill="#00ADEE" d="M23.3,17.9c0,0.8-0.3,1.4-0.9,2c-0.6,0.5-1.3,0.8-2.2,0.8h-4.5c-1.7,0-3.1-1.3-3.1-2.8V6.3
					c0-1.8,1.4-2.9,3-2.9h5.8c0.5,0,0.8,0.3,0.8,0.7v0.3c0,0.4-0.4,0.7-0.8,0.7h-4.8c-1.2,0-1.9,0.6-1.9,1.7V12
					c0.3-0.5,1.1-0.9,1.9-0.9h3.7c1.7,0,3.1,1.3,3.1,2.8V17.9z M21.3,14.6c0-1.1-0.6-1.8-1.6-1.8h-3.4c-1,0-1.6,0.6-1.6,1.7v2.8
					c0,1.1,0.6,1.7,1.7,1.7h3.3c1,0,1.6-0.7,1.6-1.7V14.6z"/>
			</g>
		</g>
	</g>
</g>
</svg>
