<?xml version="1.0" encoding="utf-8"?>
<!-- Generator: Adobe Illustrator 18.0.0, SVG Export Plug-In . SVG Version: 6.00 Build 0)  -->
<!DOCTYPE svg PUBLIC "-//W3C//DTD SVG 1.1//EN" "http://www.w3.org/Graphics/SVG/1.1/DTD/svg11.dtd">
<svg version="1.1" xmlns="http://www.w3.org/2000/svg" xmlns:xlink="http://www.w3.org/1999/xlink" x="0px" y="0px"
	 viewBox="0 0 24 24" enable-background="new 0 0 24 24" xml:space="preserve">
<g id="guides" display="none">
</g>
<g id="limits" display="none">
	<path display="inline" fill="none" stroke="#000000" stroke-width="1.000000e-02" stroke-miterlimit="10" d="M20,20H4
		c-1.1,0-2-0.9-2-2V6c0-1.1,0.9-2,2-2h16c1.1,0,2,0.9,2,2v12C22,19.1,21.1,20,20,20z"/>
	<path display="inline" fill="none" stroke="#000000" stroke-width="1.000000e-02" stroke-miterlimit="10" d="M20,4v16
		c0,1.1-0.9,2-2,2H6c-1.1,0-2-0.9-2-2V4c0-1.1,0.9-2,2-2h12C19.1,2,20,2.9,20,4z"/>
	<path display="inline" fill="none" stroke="#000000" stroke-width="1.000000e-02" stroke-miterlimit="10" d="M20,4v16
		c0,1.1-0.9,2-2,2H6c-1.1,0-2-0.9-2-2V4c0-1.1,0.9-2,2-2h12C19.1,2,20,2.9,20,4z"/>
	<path display="inline" fill="none" stroke="#000000" stroke-width="1.000000e-02" stroke-miterlimit="10" d="M21,5v14
		c0,1.1-0.9,2-2,2H5c-1.1,0-2-0.9-2-2V5c0-1.1,0.9-2,2-2h14C20.1,3,21,3.9,21,5z"/>
	<path display="inline" fill="none" stroke="#000000" stroke-width="1.000000e-02" stroke-miterlimit="10" d="M21,5v14
		c0,1.1-0.9,2-2,2H5c-1.1,0-2-0.9-2-2V5c0-1.1,0.9-2,2-2h14C20.1,3,21,3.9,21,5z"/>

		<circle display="inline" fill="none" stroke="#000000" stroke-width="1.000000e-02" stroke-miterlimit="10" cx="12" cy="12" r="10"/>

		<circle display="inline" fill="none" stroke="#000000" stroke-width="1.000000e-02" stroke-miterlimit="10" cx="12" cy="12" r="5"/>

		<line display="inline" fill="none" stroke="#000000" stroke-width="1.000000e-02" stroke-miterlimit="10" x1="0" y1="0" x2="24" y2="24"/>

		<line display="inline" fill="none" stroke="#000000" stroke-width="1.000000e-02" stroke-miterlimit="10" x1="0" y1="24" x2="24" y2="0"/>
</g>
<g id="base" display="none">
	<rect display="inline" fill="none" width="24" height="24"/>
</g>
<g id="icons">
	<g>
		<path fill-opacity="0.9" d="M12,2C6.5,2,2,6.5,2,12s4.5,10,10,10c5.5,0,10-4.5,10-10S17.5,2,12,2z M12,20c-4.4,0-8-3.6-8-8
			s3.6-8,8-8s8,3.6,8,8S16.4,20,12,20z"/>
		<path fill-opacity="0.9" d="M12.5,7H11v6l5.2,3.1l0.8-1.2l-4.5-2.7V7z"/>
	</g>
</g>
</svg>
